# xmcd CD database file
#
# Track frame offsets:
#	151
#	13043
#	24405
#	37965
#	51648
#	64671
#	75298
#	87166
#	100697
#	113638
#	127107
#	138563
#	150536
#	161886
#	173897
#	186910
#	198327
#	210176
#	221051
#	232925
#	243000
#	253300
#	263701
#	275551
#	286926
#	297351
#	308052
#	318326
#	328925
#	339202
#
# Disc length: 4665 seconds
#
# Revision: 0
# Processed by: cddbd v1.4PL0 Copyright (c) Steve Scherf et al.
# Submitted via: NeoAudio 9.9.9
#
DISCID=ab12371e
DTITLE=Robert Johnson - The Robert Johnson Gold Collection - Disc 1 and 2
DYEAR=1900
DGENRE=Blues
TTITLE0=Kindhearted Woman Blues
TTITLE1=Kindhearted Woman Blues
TTITLE2=I Believe I'll Dust My Broom
TTITLE3=Sweet Home Chicago
TTITLE4=Rambling On My Mind
TTITLE5=Rambling On My Mind
TTITLE6=Come On In My Kitchen
TTITLE7=Terraplane Blues
TTITLE8=32-20 Blues
TTITLE9=They're Red Hot
TTITLE10=Dead Shrimp Blues
TTITLE11=Cross Road Blues
TTITLE12=Walking Blues
TTITLE13=Last Fair Deal Gone Down
TTITLE14=Preaching Blues
TTITLE15=Stones In My Passway
TTITLE16=I'm A Steady Rollin' Man
TTITLE17=From Four Till Late
TTITLE18=Hellhound On My Trail
TTITLE19=Little Queen Of Spades
TTITLE20=Little Queen Of Spades
TTITLE21=Malted Milk
TTITLE22=Me And The Devil Blues
TTITLE23=Me And The Devil Blues
TTITLE24=Stop Breakin' DOwn Blues
TTITLE25=Stop Breakin' Down Blues
TTITLE26=Honeymoon Blues
TTITLE27=Love In Vain
TTITLE28=Milkcow's Calf Blues
TTITLE29=Milkcow's Calf Blues
EXTD=
EXTT0=
EXTT1=
EXTT2=
EXTT3=
EXTT4=
EXTT5=
EXTT6=
EXTT7=
EXTT8=
EXTT9=
EXTT10=
EXTT11=
EXTT12=
EXTT13=
EXTT14=
EXTT15=
EXTT16=
EXTT17=
EXTT18=
EXTT19=
EXTT20=
EXTT21=
EXTT22=
EXTT23=
EXTT24=
EXTT25=
EXTT26=
EXTT27=
EXTT28=
EXTT29=
PLAYORDER=
